<?xml version="1.0" encoding="UTF-8" standalone="no"?>
<!DOCTYPE svg PUBLIC "-//W3C//DTD SVG 1.1//EN"
 "http://www.w3.org/Graphics/SVG/1.1/DTD/svg11.dtd">
<!-- Generated by graphviz version 2.40.1 (20161225.0304)
 -->
<!-- Title: finite_state_machine Pages: 1 -->
<svg width="576pt" height="141pt"
 viewBox="0.00 0.00 576.00 141.21" xmlns="http://www.w3.org/2000/svg" xmlns:xlink="http://www.w3.org/1999/xlink">
<g id="graph0" class="graph" transform="scale(.6541 .6541) rotate(0) translate(4 211.8969)">
<title>finite_state_machine</title>
<polygon fill="#ffffff" stroke="transparent" points="-4,4 -4,-211.8969 876.666,-211.8969 876.666,4 -4,4"/>
<!-- INT -->
<g id="node1" class="node">
<title>INT</title>
<ellipse fill="none" stroke="#000000" cx="187.1954" cy="-141.9748" rx="27.2289" ry="27.2289"/>
<ellipse fill="none" stroke="#000000" cx="187.1954" cy="-141.9748" rx="31.2446" ry="31.2446"/>
<text text-anchor="middle" x="187.1954" y="-137.7748" font-family="Times,serif" font-size="14.00" fill="#000000">INT</text>
</g>
<!-- INT&#45;&gt;INT -->
<g id="edge3" class="edge">
<title>INT&#45;&gt;INT</title>
<path fill="none" stroke="#000000" d="M173.4051,-170.243C172.626,-181.5807 177.2228,-191.0969 187.1954,-191.0969 193.8958,-191.0969 198.1694,-186.8011 200.0163,-180.5434"/>
<polygon fill="#000000" stroke="#000000" points="203.5332,-180.527 200.9858,-170.243 196.564,-179.871 203.5332,-180.527"/>
<text text-anchor="middle" x="187.1954" y="-195.2969" font-family="Times,serif" font-size="14.00" fill="#000000">[0&#45;9]</text>
</g>
<!-- FLOAT1 -->
<g id="node2" class="node">
<title>FLOAT1</title>
<ellipse fill="none" stroke="#000000" cx="344.2984" cy="-50.9748" rx="46.9516" ry="46.9516"/>
<ellipse fill="none" stroke="#000000" cx="344.2984" cy="-50.9748" rx="50.9497" ry="50.9497"/>
<text text-anchor="middle" x="344.2984" y="-46.7748" font-family="Times,serif" font-size="14.00" fill="#000000">FLOAT1</text>
</g>
<!-- INT&#45;&gt;FLOAT1 -->
<g id="edge4" class="edge">
<title>INT&#45;&gt;FLOAT1</title>
<path fill="none" stroke="#000000" d="M214.2024,-126.3314C235.3129,-114.1034 265.316,-96.7244 291.1902,-81.7371"/>
<polygon fill="#000000" stroke="#000000" points="293.2498,-84.589 300.1487,-76.548 289.7412,-78.5317 293.2498,-84.589"/>
<text text-anchor="middle" x="261.3327" y="-108.1748" font-family="Times,serif" font-size="14.00" fill="#000000">[.]</text>
</g>
<!-- FLOAT2 -->
<g id="node6" class="node">
<title>FLOAT2</title>
<ellipse fill="none" stroke="#000000" cx="505.1351" cy="-111.9748" rx="46.9497" ry="46.9497"/>
<text text-anchor="middle" x="505.1351" y="-107.7748" font-family="Times,serif" font-size="14.00" fill="#000000">FLOAT2</text>
</g>
<!-- INT&#45;&gt;FLOAT2 -->
<g id="edge5" class="edge">
<title>INT&#45;&gt;FLOAT2</title>
<path fill="none" stroke="#000000" d="M218.4215,-145.5141C259.3025,-149.4438 333.0778,-154.1142 395.2733,-144.9748 413.8931,-142.2387 433.7365,-137.0259 451.363,-131.5377"/>
<polygon fill="#000000" stroke="#000000" points="452.454,-134.8635 460.9056,-128.4743 450.3143,-128.1985 452.454,-134.8635"/>
<text text-anchor="middle" x="344.2984" y="-154.1748" font-family="Times,serif" font-size="14.00" fill="#000000">(e|E)</text>
</g>
<!-- FLOAT1&#45;&gt;FLOAT1 -->
<g id="edge7" class="edge">
<title>FLOAT1&#45;&gt;FLOAT1</title>
<path fill="none" stroke="#000000" d="M329.2275,-99.9519C330.4662,-111.4597 335.4898,-119.9497 344.2984,-119.9497 350.2167,-119.9497 354.4264,-116.1172 356.9275,-110.1118"/>
<polygon fill="#000000" stroke="#000000" points="360.4355,-110.4929 359.3694,-99.9519 353.6293,-108.857 360.4355,-110.4929"/>
<text text-anchor="middle" x="344.2984" y="-124.1497" font-family="Times,serif" font-size="14.00" fill="#000000">[0&#45;9]</text>
</g>
<!-- FLOAT1&#45;&gt;FLOAT2 -->
<g id="edge8" class="edge">
<title>FLOAT1&#45;&gt;FLOAT2</title>
<path fill="none" stroke="#000000" d="M392.1193,-69.1117C410.814,-76.202 432.3378,-84.3652 451.5528,-91.6529"/>
<polygon fill="#000000" stroke="#000000" points="450.4782,-94.9885 461.0695,-95.2622 452.9605,-88.4434 450.4782,-94.9885"/>
<text text-anchor="middle" x="426.7168" y="-91.1748" font-family="Times,serif" font-size="14.00" fill="#000000">(e|E)</text>
</g>
<!-- FLOAT4 -->
<g id="node3" class="node">
<title>FLOAT4</title>
<ellipse fill="none" stroke="#000000" cx="821.6912" cy="-111.9748" rx="46.9516" ry="46.9516"/>
<ellipse fill="none" stroke="#000000" cx="821.6912" cy="-111.9748" rx="50.9497" ry="50.9497"/>
<text text-anchor="middle" x="821.6912" y="-107.7748" font-family="Times,serif" font-size="14.00" fill="#000000">FLOAT4</text>
</g>
<!-- FLOAT4&#45;&gt;FLOAT4 -->
<g id="edge12" class="edge">
<title>FLOAT4&#45;&gt;FLOAT4</title>
<path fill="none" stroke="#000000" d="M806.6202,-160.9519C807.8589,-172.4597 812.8826,-180.9497 821.6912,-180.9497 827.6095,-180.9497 831.8192,-177.1172 834.3203,-171.1118"/>
<polygon fill="#000000" stroke="#000000" points="837.8283,-171.4929 836.7621,-160.9519 831.0221,-169.857 837.8283,-171.4929"/>
<text text-anchor="middle" x="821.6912" y="-185.1497" font-family="Times,serif" font-size="14.00" fill="#000000">[0&#45;9]</text>
</g>
<!-- BEGIN -->
<g id="node4" class="node">
<title>BEGIN</title>
<ellipse fill="none" stroke="#000000" cx="40.5336" cy="-95.9748" rx="40.5673" ry="40.5673"/>
<text text-anchor="middle" x="40.5336" y="-91.7748" font-family="Times,serif" font-size="14.00" fill="#000000">BEGIN</text>
</g>
<!-- BEGIN&#45;&gt;INT -->
<g id="edge1" class="edge">
<title>BEGIN&#45;&gt;INT</title>
<path fill="none" stroke="#000000" d="M79.4513,-108.1812C100.5501,-114.7988 126.5643,-122.9581 147.745,-129.6013"/>
<polygon fill="#000000" stroke="#000000" points="146.8166,-132.9782 157.4058,-132.6314 148.9116,-126.299 146.8166,-132.9782"/>
<text text-anchor="middle" x="113.0582" y="-127.1748" font-family="Times,serif" font-size="14.00" fill="#000000">[0&#45;9]</text>
</g>
<!-- FLOAT -->
<g id="node5" class="node">
<title>FLOAT</title>
<ellipse fill="none" stroke="#000000" cx="187.1954" cy="-50.9748" rx="42.2932" ry="42.2932"/>
<text text-anchor="middle" x="187.1954" y="-46.7748" font-family="Times,serif" font-size="14.00" fill="#000000">FLOAT</text>
</g>
<!-- BEGIN&#45;&gt;FLOAT -->
<g id="edge2" class="edge">
<title>BEGIN&#45;&gt;FLOAT</title>
<path fill="none" stroke="#000000" d="M79.4513,-84.0338C97.1562,-78.6014 118.3225,-72.107 137.1894,-66.3181"/>
<polygon fill="#000000" stroke="#000000" points="138.2821,-69.644 146.8155,-63.3645 136.2287,-62.9519 138.2821,-69.644"/>
<text text-anchor="middle" x="113.0582" y="-82.1748" font-family="Times,serif" font-size="14.00" fill="#000000">[.]</text>
</g>
<!-- FLOAT&#45;&gt;FLOAT1 -->
<g id="edge6" class="edge">
<title>FLOAT&#45;&gt;FLOAT1</title>
<path fill="none" stroke="#000000" d="M229.7098,-50.9748C246.042,-50.9748 265.0278,-50.9748 282.7917,-50.9748"/>
<polygon fill="#000000" stroke="#000000" points="283.0804,-54.4749 293.0804,-50.9748 283.0803,-47.4749 283.0804,-54.4749"/>
<text text-anchor="middle" x="261.3327" y="-55.1748" font-family="Times,serif" font-size="14.00" fill="#000000">[0&#45;9]</text>
</g>
<!-- FLOAT2&#45;&gt;FLOAT4 -->
<g id="edge10" class="edge">
<title>FLOAT2&#45;&gt;FLOAT4</title>
<path fill="none" stroke="#000000" d="M551.6358,-119.3577C570.5535,-122.0122 592.6612,-124.6718 612.7849,-125.9748 654.453,-128.673 665.0558,-128.5034 706.7346,-125.9748 724.4331,-124.9011 743.5803,-122.9056 761.0776,-120.751"/>
<polygon fill="#000000" stroke="#000000" points="761.6864,-124.2019 771.1657,-119.4697 760.8044,-117.2577 761.6864,-124.2019"/>
<text text-anchor="middle" x="659.7597" y="-131.1748" font-family="Times,serif" font-size="14.00" fill="#000000">[0&#45;9]</text>
</g>
<!-- FLOAT3 -->
<g id="node7" class="node">
<title>FLOAT3</title>
<ellipse fill="none" stroke="#000000" cx="659.7597" cy="-69.9748" rx="46.9497" ry="46.9497"/>
<text text-anchor="middle" x="659.7597" y="-65.7748" font-family="Times,serif" font-size="14.00" fill="#000000">FLOAT3</text>
</g>
<!-- FLOAT2&#45;&gt;FLOAT3 -->
<g id="edge9" class="edge">
<title>FLOAT2&#45;&gt;FLOAT3</title>
<path fill="none" stroke="#000000" d="M550.6913,-99.6006C567.4465,-95.0495 586.6103,-89.8441 604.1519,-85.0793"/>
<polygon fill="#000000" stroke="#000000" points="605.5293,-88.3321 614.2622,-82.3331 603.6944,-81.5768 605.5293,-88.3321"/>
<text text-anchor="middle" x="582.4474" y="-97.1748" font-family="Times,serif" font-size="14.00" fill="#000000">(+|&#45;)</text>
</g>
<!-- FLOAT3&#45;&gt;FLOAT4 -->
<g id="edge11" class="edge">
<title>FLOAT3&#45;&gt;FLOAT4</title>
<path fill="none" stroke="#000000" d="M705.2976,-81.7859C723.0617,-86.3934 743.6601,-91.736 762.5466,-96.6346"/>
<polygon fill="#000000" stroke="#000000" points="761.6844,-100.0267 772.2429,-99.1495 763.4419,-93.2509 761.6844,-100.0267"/>
<text text-anchor="middle" x="738.7255" y="-97.1748" font-family="Times,serif" font-size="14.00" fill="#000000">[0&#45;9]</text>
</g>
</g>
</svg>

