<?xml version="1.0" encoding="UTF-8" standalone="no"?>
<!DOCTYPE svg PUBLIC "-//W3C//DTD SVG 1.1//EN"
 "http://www.w3.org/Graphics/SVG/1.1/DTD/svg11.dtd">
<!-- Generated by graphviz version 2.40.1 (20161225.0304)
 -->
<!-- Title: finite_state_machine Pages: 1 -->
<svg width="576pt" height="137pt"
 viewBox="0.00 0.00 576.00 136.63" xmlns="http://www.w3.org/2000/svg" xmlns:xlink="http://www.w3.org/1999/xlink">
<g id="graph0" class="graph" transform="scale(.6541 .6541) rotate(0) translate(4 204.8969)">
<title>finite_state_machine</title>
<polygon fill="#ffffff" stroke="transparent" points="-4,4 -4,-204.8969 876.666,-204.8969 876.666,4 -4,4"/>
<!-- INT -->
<g id="node1" class="node">
<title>INT</title>
<ellipse fill="none" stroke="#000000" cx="187.1954" cy="-134.9748" rx="27.2289" ry="27.2289"/>
<ellipse fill="none" stroke="#000000" cx="187.1954" cy="-134.9748" rx="31.2446" ry="31.2446"/>
<text text-anchor="middle" x="187.1954" y="-130.7748" font-family="Times,serif" font-size="14.00" fill="#000000">INT</text>
</g>
<!-- INT&#45;&gt;INT -->
<g id="edge3" class="edge">
<title>INT&#45;&gt;INT</title>
<path fill="none" stroke="#000000" d="M173.4051,-163.243C172.626,-174.5807 177.2228,-184.0969 187.1954,-184.0969 193.8958,-184.0969 198.1694,-179.8011 200.0163,-173.5434"/>
<polygon fill="#000000" stroke="#000000" points="203.5332,-173.527 200.9858,-163.243 196.564,-172.871 203.5332,-173.527"/>
<text text-anchor="middle" x="187.1954" y="-188.2969" font-family="Times,serif" font-size="14.00" fill="#000000">[0&#45;9]</text>
</g>
<!-- FLOAT1 -->
<g id="node2" class="node">
<title>FLOAT1</title>
<ellipse fill="none" stroke="#000000" cx="344.2984" cy="-88.9748" rx="46.9516" ry="46.9516"/>
<ellipse fill="none" stroke="#000000" cx="344.2984" cy="-88.9748" rx="50.9497" ry="50.9497"/>
<text text-anchor="middle" x="344.2984" y="-84.7748" font-family="Times,serif" font-size="14.00" fill="#000000">FLOAT1</text>
</g>
<!-- INT&#45;&gt;FLOAT1 -->
<g id="edge4" class="edge">
<title>INT&#45;&gt;FLOAT1</title>
<path fill="none" stroke="#000000" d="M217.1151,-126.2143C236.434,-120.5577 262.2231,-113.0066 285.5276,-106.183"/>
<polygon fill="#000000" stroke="#000000" points="286.7235,-109.4799 295.3371,-103.3108 284.7565,-102.7619 286.7235,-109.4799"/>
<text text-anchor="middle" x="261.3327" y="-120.1748" font-family="Times,serif" font-size="14.00" fill="#000000">[.]</text>
</g>
<!-- FLOAT1&#45;&gt;FLOAT1 -->
<g id="edge6" class="edge">
<title>FLOAT1&#45;&gt;FLOAT1</title>
<path fill="none" stroke="#000000" d="M329.2275,-137.9519C330.4662,-149.4597 335.4898,-157.9497 344.2984,-157.9497 350.2167,-157.9497 354.4264,-154.1172 356.9275,-148.1118"/>
<polygon fill="#000000" stroke="#000000" points="360.4355,-148.4929 359.3694,-137.9519 353.6293,-146.857 360.4355,-148.4929"/>
<text text-anchor="middle" x="344.2984" y="-162.1497" font-family="Times,serif" font-size="14.00" fill="#000000">[0&#45;9]</text>
</g>
<!-- FLOAT2 -->
<g id="node6" class="node">
<title>FLOAT2</title>
<ellipse fill="none" stroke="#000000" cx="505.1351" cy="-88.9748" rx="46.9497" ry="46.9497"/>
<text text-anchor="middle" x="505.1351" y="-84.7748" font-family="Times,serif" font-size="14.00" fill="#000000">FLOAT2</text>
</g>
<!-- FLOAT1&#45;&gt;FLOAT2 -->
<g id="edge7" class="edge">
<title>FLOAT1&#45;&gt;FLOAT2</title>
<path fill="none" stroke="#000000" d="M395.6304,-88.9748C412.2272,-88.9748 430.7344,-88.9748 447.7412,-88.9748"/>
<polygon fill="#000000" stroke="#000000" points="448.106,-92.4749 458.106,-88.9748 448.106,-85.4749 448.106,-92.4749"/>
<text text-anchor="middle" x="426.7168" y="-93.1748" font-family="Times,serif" font-size="14.00" fill="#000000">(e|E)</text>
</g>
<!-- FLOAT4 -->
<g id="node3" class="node">
<title>FLOAT4</title>
<ellipse fill="none" stroke="#000000" cx="821.6912" cy="-88.9748" rx="46.9516" ry="46.9516"/>
<ellipse fill="none" stroke="#000000" cx="821.6912" cy="-88.9748" rx="50.9497" ry="50.9497"/>
<text text-anchor="middle" x="821.6912" y="-84.7748" font-family="Times,serif" font-size="14.00" fill="#000000">FLOAT4</text>
</g>
<!-- FLOAT4&#45;&gt;FLOAT4 -->
<g id="edge11" class="edge">
<title>FLOAT4&#45;&gt;FLOAT4</title>
<path fill="none" stroke="#000000" d="M806.6202,-137.9519C807.8589,-149.4597 812.8826,-157.9497 821.6912,-157.9497 827.6095,-157.9497 831.8192,-154.1172 834.3203,-148.1118"/>
<polygon fill="#000000" stroke="#000000" points="837.8283,-148.4929 836.7621,-137.9519 831.0221,-146.857 837.8283,-148.4929"/>
<text text-anchor="middle" x="821.6912" y="-162.1497" font-family="Times,serif" font-size="14.00" fill="#000000">[0&#45;9]</text>
</g>
<!-- BEGIN -->
<g id="node4" class="node">
<title>BEGIN</title>
<ellipse fill="none" stroke="#000000" cx="40.5336" cy="-88.9748" rx="40.5673" ry="40.5673"/>
<text text-anchor="middle" x="40.5336" y="-84.7748" font-family="Times,serif" font-size="14.00" fill="#000000">BEGIN</text>
</g>
<!-- BEGIN&#45;&gt;INT -->
<g id="edge1" class="edge">
<title>BEGIN&#45;&gt;INT</title>
<path fill="none" stroke="#000000" d="M79.4513,-101.1812C100.5501,-107.7988 126.5643,-115.9581 147.745,-122.6013"/>
<polygon fill="#000000" stroke="#000000" points="146.8166,-125.9782 157.4058,-125.6314 148.9116,-119.299 146.8166,-125.9782"/>
<text text-anchor="middle" x="113.0582" y="-120.1748" font-family="Times,serif" font-size="14.00" fill="#000000">[0&#45;9]</text>
</g>
<!-- FLOAT -->
<g id="node5" class="node">
<title>FLOAT</title>
<ellipse fill="none" stroke="#000000" cx="187.1954" cy="-43.9748" rx="42.2932" ry="42.2932"/>
<text text-anchor="middle" x="187.1954" y="-39.7748" font-family="Times,serif" font-size="14.00" fill="#000000">FLOAT</text>
</g>
<!-- BEGIN&#45;&gt;FLOAT -->
<g id="edge2" class="edge">
<title>BEGIN&#45;&gt;FLOAT</title>
<path fill="none" stroke="#000000" d="M79.4513,-77.0338C97.1562,-71.6014 118.3225,-65.107 137.1894,-59.3181"/>
<polygon fill="#000000" stroke="#000000" points="138.2821,-62.644 146.8155,-56.3645 136.2287,-55.9519 138.2821,-62.644"/>
<text text-anchor="middle" x="113.0582" y="-75.1748" font-family="Times,serif" font-size="14.00" fill="#000000">[.]</text>
</g>
<!-- FLOAT&#45;&gt;FLOAT1 -->
<g id="edge5" class="edge">
<title>FLOAT&#45;&gt;FLOAT1</title>
<path fill="none" stroke="#000000" d="M228.0623,-55.6806C245.5593,-60.6924 266.3256,-66.6406 285.4312,-72.1131"/>
<polygon fill="#000000" stroke="#000000" points="284.6675,-75.535 295.2447,-74.9241 286.5951,-68.8057 284.6675,-75.535"/>
<text text-anchor="middle" x="261.3327" y="-74.1748" font-family="Times,serif" font-size="14.00" fill="#000000">[0&#45;9]</text>
</g>
<!-- FLOAT2&#45;&gt;FLOAT4 -->
<g id="edge9" class="edge">
<title>FLOAT2&#45;&gt;FLOAT4</title>
<path fill="none" stroke="#000000" d="M551.6358,-96.3577C570.5535,-99.0122 592.6612,-101.6718 612.7849,-102.9748 654.453,-105.673 665.0558,-105.5034 706.7346,-102.9748 724.4331,-101.9011 743.5803,-99.9056 761.0776,-97.751"/>
<polygon fill="#000000" stroke="#000000" points="761.6864,-101.2019 771.1657,-96.4697 760.8044,-94.2577 761.6864,-101.2019"/>
<text text-anchor="middle" x="659.7597" y="-108.1748" font-family="Times,serif" font-size="14.00" fill="#000000">[0&#45;9]</text>
</g>
<!-- FLOAT3 -->
<g id="node7" class="node">
<title>FLOAT3</title>
<ellipse fill="none" stroke="#000000" cx="659.7597" cy="-46.9748" rx="46.9497" ry="46.9497"/>
<text text-anchor="middle" x="659.7597" y="-42.7748" font-family="Times,serif" font-size="14.00" fill="#000000">FLOAT3</text>
</g>
<!-- FLOAT2&#45;&gt;FLOAT3 -->
<g id="edge8" class="edge">
<title>FLOAT2&#45;&gt;FLOAT3</title>
<path fill="none" stroke="#000000" d="M550.6913,-76.6006C567.4465,-72.0495 586.6103,-66.8441 604.1519,-62.0793"/>
<polygon fill="#000000" stroke="#000000" points="605.5293,-65.3321 614.2622,-59.3331 603.6944,-58.5768 605.5293,-65.3321"/>
<text text-anchor="middle" x="582.4474" y="-75.1748" font-family="Times,serif" font-size="14.00" fill="#000000">(+|&#45;)</text>
</g>
<!-- FLOAT3&#45;&gt;FLOAT4 -->
<g id="edge10" class="edge">
<title>FLOAT3&#45;&gt;FLOAT4</title>
<path fill="none" stroke="#000000" d="M705.2976,-58.7859C723.0617,-63.3934 743.6601,-68.736 762.5466,-73.6346"/>
<polygon fill="#000000" stroke="#000000" points="761.6844,-77.0267 772.2429,-76.1495 763.4419,-70.2509 761.6844,-77.0267"/>
<text text-anchor="middle" x="738.7255" y="-75.1748" font-family="Times,serif" font-size="14.00" fill="#000000">[0&#45;9]</text>
</g>
</g>
</svg>

